<?xml version="1.0" encoding="UTF-8" standalone="no"?>
<svg
   xmlns:dc="http://purl.org/dc/elements/1.1/"
   xmlns:cc="http://creativecommons.org/ns#"
   xmlns:rdf="http://www.w3.org/1999/02/22-rdf-syntax-ns#"
   xmlns:svg="http://www.w3.org/2000/svg"
   xmlns="http://www.w3.org/2000/svg"
   viewBox="0 0 133.33333 133.33333"
   height="133.33333"
   width="133.33333"
   xml:space="preserve"
   id="svg2"
   version="1.1"><metadata
     id="metadata8"><rdf:RDF><cc:Work
         rdf:about=""><dc:format>image/svg+xml</dc:format><dc:type
           rdf:resource="http://purl.org/dc/dcmitype/StillImage" /></cc:Work></rdf:RDF></metadata><defs
     id="defs6"><clipPath
       id="clipPath18"
       clipPathUnits="userSpaceOnUse"><path
         id="path16"
         d="M 50.001,100 C 42.12,100 34.671,98.17 28.04,94.925 v 0 C 27.969,94.14 27.332,93.514 26.532,93.514 v 0 c -0.28,0 -0.529,0.094 -0.755,0.226 v 0 C 14.727,87.609 6.243,77.412 2.349,65.165 v 0 C 2.773,64.893 3.07,64.437 3.07,63.894 v 0 c 0,-0.849 -0.686,-1.537 -1.528,-1.539 v 0 C 0.537,58.402 0,54.265 0,50 v 0 C 0,41.07 2.352,32.693 6.455,25.438 v 0 c 0.807,-0.045 1.454,-0.703 1.454,-1.525 v 0 c 0,-0.232 -0.06,-0.447 -0.152,-0.645 v 0 C 14.96,11.907 26.613,3.649 40.271,0.955 v 0 c 0.277,0.27 0.652,0.439 1.067,0.439 v 0 c 0.598,0 1.104,-0.354 1.359,-0.858 v 0 C 45.081,0.188 47.518,0 50.001,0 V 0 C 60.1,0 69.498,3.005 77.359,8.158 v 0 c 0.049,0.806 0.703,1.451 1.518,1.451 v 0 c 0.16,0 0.308,-0.046 0.454,-0.092 v 0 c 8.074,5.859 14.328,14.068 17.75,23.629 v 0 c -0.173,0.25 -0.297,0.536 -0.297,0.861 v 0 c 0,0.682 0.448,1.242 1.059,1.445 v 0 C 99.242,40.055 100,44.94 100,50 v 0 c 0,5.635 -0.944,11.044 -2.664,16.098 v 0 c -0.62,0.198 -1.078,0.761 -1.078,1.45 v 0 c 0,0.296 0.106,0.559 0.254,0.795 v 0 C 91.718,80.49 82.311,90.299 70.447,95.626 v 0 c -0.206,-0.104 -0.431,-0.175 -0.676,-0.175 v 0 c -0.68,0 -1.239,0.45 -1.439,1.066 v 0 C 62.654,98.755 56.473,100 50.001,100 Z" /></clipPath><radialGradient
       id="radialGradient32"
       spreadMethod="pad"
       gradientTransform="matrix(79.461105,0,0,-79.751236,36.847454,78.223434)"
       gradientUnits="userSpaceOnUse"
       r="1"
       cy="0"
       cx="0"
       fy="0"
       fx="0"><stop
         id="stop24"
         offset="0"
         style="stop-opacity:1;stop-color:#ffb854" /><stop
         id="stop26"
         offset="0.434066"
         style="stop-opacity:1;stop-color:#ff5900" /><stop
         id="stop28"
         offset="0.818681"
         style="stop-opacity:1;stop-color:#a33800" /><stop
         id="stop30"
         offset="1"
         style="stop-opacity:1;stop-color:#421200" /></radialGradient><clipPath
       id="clipPath42"
       clipPathUnits="userSpaceOnUse"><path
         id="path40"
         d="m 69.771,95.451 c -0.065,0 -0.117,0.023 -0.18,0.029 v 0 c 4.025,-5.477 6.244,-12.178 5.935,-18.673 v 0 c 0.433,-11.119 1.642,-21.944 5.587,-30.386 v 0 c -0.687,-0.536 -1.376,-1.064 -2.079,-1.559 v 0 c -2.239,-1.508 -4.503,-2.92 -6.774,-4.289 v 0 C 66.236,53.7 58.465,64.853 51.25,74.146 v 0 C 43.409,84.05 35.156,91.25 28.155,94.976 v 0 C 28.117,94.956 28.076,94.94 28.04,94.925 v 0 c -0.021,-0.231 -0.101,-0.439 -0.21,-0.629 v 0 C 39.115,87.949 47.499,76.501 54.686,66.867 v 0 C 61.061,57.732 66.618,48.585 70.761,39.686 v 0 C 67.175,37.58 63.582,35.648 60.004,33.892 v 0 c -2.947,5.342 -8.058,9.158 -12.758,11.909 v 0 c -6.439,3.853 -13.089,6.317 -19.284,8.204 v 0 C 17.596,56.647 9.266,60.284 3.02,63.641 v 0 C 2.971,63.358 2.861,63.104 2.683,62.897 v 0 C 12.858,57.07 24.149,53.4 34.379,50.027 v 0 C 44.046,46.478 53.77,40.631 58.342,33.075 v 0 C 51.008,29.579 43.803,26.814 37.123,24.818 v 0 C 25.239,21.298 15.277,21.882 7.868,23.583 v 0 C 7.843,23.473 7.804,23.368 7.757,23.268 v 0 c 0.114,-0.183 0.241,-0.357 0.358,-0.536 v 0 c 12.321,-3.092 25.783,-1.464 36.981,2.877 v 0 c 4.842,1.875 9.571,3.834 14.1,5.926 v 0 C 60.852,28.199 61.5,24.556 60.72,20.649 v 0 C 58.515,9.221 49.206,3.497 42.691,0.544 v 0 C 42.694,0.541 42.694,0.54 42.697,0.536 v 0 c 0.485,-0.07 0.984,-0.105 1.472,-0.161 v 0 c 3.124,1.35 6.09,3.05 8.761,5.21 v 0 c 6.744,5.147 11.088,14.053 9.204,22.435 v 0 c -0.285,1.515 -0.749,2.932 -1.339,4.267 v 0 c 3.758,1.783 7.36,3.664 10.756,5.675 v 0 c 1.859,-4.174 3.4,-8.288 4.545,-12.315 v 0 c 1.842,-5.85 2.632,-11.222 2.739,-16.046 v 0 c 0.013,0 0.027,0.008 0.042,0.008 v 0 c 0.16,0 0.308,-0.046 0.454,-0.092 v 0 c 0.2,0.146 0.386,0.311 0.582,0.458 v 0 c -0.056,8.253 -1.887,16.519 -4.694,23.656 v 0 c -0.688,1.779 -1.426,3.509 -2.179,5.22 v 0 c 3.124,1.921 6.048,3.963 8.734,6.142 v 0 c 0.038,-0.065 0.061,-0.139 0.097,-0.204 v 0 c 2.079,-4.249 4.527,-8.36 8.305,-10.226 v 0 c 2.38,-1 4.685,-1.227 6.735,-1.098 v 0 c -0.072,0.167 -0.127,0.346 -0.127,0.542 v 0 c 0,0.107 0.028,0.201 0.049,0.301 v 0 c -2.174,-0.006 -4.285,0.355 -6.251,1.31 v 0 c -3.636,2.421 -5.83,6.388 -7.546,10.435 v 0 c 1.04,0.889 2.054,1.792 3.011,2.73 v 0 c 5.525,5.356 9.156,11.311 11.414,16.921 v 0 c -0.043,0.131 -0.081,0.263 -0.125,0.394 v 0 c -0.289,0.092 -0.536,0.269 -0.725,0.495 v 0 c -3.192,-7.46 -8.2,-14.065 -14.173,-19.084 v 0 c -0.395,0.991 -0.777,1.979 -1.143,2.939 v 0 c -3.847,11.129 -3.488,22.386 -4.614,31.954 v 0 c -1.273,5.476 -3.408,9.732 -5.819,13.026 v 0 c -0.139,0.062 -0.275,0.135 -0.415,0.198 v 0 c -0.206,-0.104 -0.431,-0.175 -0.676,-0.175" /></clipPath><radialGradient
       id="radialGradient54"
       spreadMethod="pad"
       gradientTransform="matrix(42.684837,0,0,-42.840691,55.327209,69.942604)"
       gradientUnits="userSpaceOnUse"
       r="1"
       cy="0"
       cx="0"
       fy="0"
       fx="0"><stop
         id="stop48"
         offset="0"
         style="stop-opacity:1;stop-color:#9b9796" /><stop
         id="stop50"
         offset="0.357143"
         style="stop-opacity:1;stop-color:#000000" /><stop
         id="stop52"
         offset="1"
         style="stop-opacity:1;stop-color:#000000" /></radialGradient><clipPath
       id="clipPath64"
       clipPathUnits="userSpaceOnUse"><path
         id="path62"
         d="M 2.683,62.897 C 12.858,57.07 24.149,53.4 34.379,50.027 v 0 C 44.046,46.478 53.77,40.631 58.342,33.075 v 0 C 51.008,29.579 43.803,26.814 37.123,24.818 v 0 C 25.239,21.298 15.277,21.882 7.868,23.583 v 0 C 7.843,23.473 7.804,23.368 7.757,23.268 v 0 c 0.114,-0.183 0.241,-0.357 0.358,-0.536 v 0 c 12.321,-3.092 25.783,-1.464 36.981,2.877 v 0 c 4.842,1.875 9.571,3.834 14.1,5.926 v 0 C 60.852,28.199 61.5,24.556 60.72,20.649 v 0 C 58.515,9.221 49.206,3.497 42.691,0.544 v 0 C 42.694,0.541 42.694,0.54 42.697,0.536 v 0 c 0.485,-0.07 0.984,-0.105 1.472,-0.161 v 0 c 3.124,1.35 6.09,3.05 8.761,5.21 v 0 c 6.744,5.147 11.088,14.053 9.204,22.435 v 0 c -0.285,1.515 -0.749,2.932 -1.339,4.267 v 0 c 1.242,0.588 2.461,1.194 3.667,1.806 v 0 l -0.864,1.65 c -1.199,-0.628 -2.399,-1.262 -3.594,-1.851 v 0 c -2.947,5.342 -8.058,9.158 -12.758,11.909 v 0 c -6.439,3.853 -13.089,6.317 -19.284,8.204 v 0 C 17.596,56.647 9.266,60.284 3.02,63.641 v 0 C 2.971,63.358 2.861,63.104 2.683,62.897" /></clipPath><radialGradient
       id="radialGradient76"
       spreadMethod="pad"
       gradientTransform="matrix(36.333538,0,0,-36.466202,16.279583,58.131512)"
       gradientUnits="userSpaceOnUse"
       r="1"
       cy="0"
       cx="0"
       fy="0"
       fx="0"><stop
         id="stop70"
         offset="0"
         style="stop-opacity:1;stop-color:#9b9796" /><stop
         id="stop72"
         offset="0.357143"
         style="stop-opacity:1;stop-color:#000000" /><stop
         id="stop74"
         offset="1"
         style="stop-opacity:1;stop-color:#000000" /></radialGradient><clipPath
       id="clipPath86"
       clipPathUnits="userSpaceOnUse"><path
         id="path84"
         d="m 70.117,95.498 0.088,-0.926 c 3.621,-5.304 5.614,-11.619 5.321,-17.765 v 0 c 0.433,-11.119 1.642,-21.944 5.587,-30.386 v 0 c -0.65,-0.508 -1.306,-1.006 -1.972,-1.476 v 0 l 0.437,-1.661 c 0.747,0.561 1.481,1.129 2.196,1.709 v 0 c 0.038,-0.065 0.061,-0.139 0.097,-0.204 v 0 c 2.079,-4.249 4.527,-8.36 8.305,-10.226 v 0 c 2.38,-1 4.685,-1.227 6.735,-1.098 v 0 c -0.072,0.167 -0.127,0.346 -0.127,0.542 v 0 c 0,0.107 0.028,0.201 0.049,0.301 v 0 c -2.174,-0.006 -4.285,0.355 -6.251,1.31 v 0 c -3.636,2.421 -5.83,6.388 -7.546,10.435 v 0 c 1.04,0.889 2.054,1.792 3.011,2.73 v 0 c 5.525,5.356 9.156,11.311 11.414,16.921 v 0 c -0.043,0.131 -0.081,0.263 -0.125,0.394 v 0 c -0.289,0.092 -0.536,0.269 -0.725,0.495 v 0 c -3.192,-7.46 -8.2,-14.065 -14.173,-19.084 v 0 c -0.395,0.991 -0.777,1.979 -1.143,2.939 v 0 c -3.847,11.129 -3.488,22.386 -4.614,31.954 v 0 c -1.273,5.476 -3.408,9.732 -5.819,13.026 v 0 c -0.139,0.062 -0.275,0.135 -0.415,0.198 v 0 c -0.105,-0.053 -0.215,-0.096 -0.33,-0.128" /></clipPath><radialGradient
       id="radialGradient98"
       spreadMethod="pad"
       gradientTransform="matrix(29.300043,0,0,-29.407024,74.026123,92.685204)"
       gradientUnits="userSpaceOnUse"
       r="1"
       cy="0"
       cx="0"
       fy="0"
       fx="0"><stop
         id="stop92"
         offset="0"
         style="stop-opacity:1;stop-color:#9b9796" /><stop
         id="stop94"
         offset="0.357143"
         style="stop-opacity:1;stop-color:#000000" /><stop
         id="stop96"
         offset="1"
         style="stop-opacity:1;stop-color:#000000" /></radialGradient></defs><g
     transform="matrix(1.3333333,0,0,-1.3333333,0,133.33333)"
     id="g10"><g
       id="g12"><g
         clip-path="url(#clipPath18)"
         id="g14"><g
           id="g20"><g
             id="g22"><path
               id="path34"
               style="fill:url(#radialGradient32);stroke:none"
               d="M 50.001,100 C 42.12,100 34.671,98.17 28.04,94.925 v 0 C 27.969,94.14 27.332,93.514 26.532,93.514 v 0 c -0.28,0 -0.529,0.094 -0.755,0.226 v 0 C 14.727,87.609 6.243,77.412 2.349,65.165 v 0 C 2.773,64.893 3.07,64.437 3.07,63.894 v 0 c 0,-0.849 -0.686,-1.537 -1.528,-1.539 v 0 C 0.537,58.402 0,54.265 0,50 v 0 C 0,41.07 2.352,32.693 6.455,25.438 v 0 c 0.807,-0.045 1.454,-0.703 1.454,-1.525 v 0 c 0,-0.232 -0.06,-0.447 -0.152,-0.645 v 0 C 14.96,11.907 26.613,3.649 40.271,0.955 v 0 c 0.277,0.27 0.652,0.439 1.067,0.439 v 0 c 0.598,0 1.104,-0.354 1.359,-0.858 v 0 C 45.081,0.188 47.518,0 50.001,0 V 0 C 60.1,0 69.498,3.005 77.359,8.158 v 0 c 0.049,0.806 0.703,1.451 1.518,1.451 v 0 c 0.16,0 0.308,-0.046 0.454,-0.092 v 0 c 8.074,5.859 14.328,14.068 17.75,23.629 v 0 c -0.173,0.25 -0.297,0.536 -0.297,0.861 v 0 c 0,0.682 0.448,1.242 1.059,1.445 v 0 C 99.242,40.055 100,44.94 100,50 v 0 c 0,5.635 -0.944,11.044 -2.664,16.098 v 0 c -0.62,0.198 -1.078,0.761 -1.078,1.45 v 0 c 0,0.296 0.106,0.559 0.254,0.795 v 0 C 91.718,80.49 82.311,90.299 70.447,95.626 v 0 c -0.206,-0.104 -0.431,-0.175 -0.676,-0.175 v 0 c -0.68,0 -1.239,0.45 -1.439,1.066 v 0 C 62.654,98.755 56.473,100 50.001,100 Z" /></g></g></g></g><g
       id="g36"><g
         clip-path="url(#clipPath42)"
         id="g38"><g
           id="g44"><g
             id="g46"><path
               id="path56"
               style="fill:url(#radialGradient54);stroke:none"
               d="m 69.771,95.451 c -0.065,0 -0.117,0.023 -0.18,0.029 v 0 c 4.025,-5.477 6.244,-12.178 5.935,-18.673 v 0 c 0.433,-11.119 1.642,-21.944 5.587,-30.386 v 0 c -0.687,-0.536 -1.376,-1.064 -2.079,-1.559 v 0 c -2.239,-1.508 -4.503,-2.92 -6.774,-4.289 v 0 C 66.236,53.7 58.465,64.853 51.25,74.146 v 0 C 43.409,84.05 35.156,91.25 28.155,94.976 v 0 C 28.117,94.956 28.076,94.94 28.04,94.925 v 0 c -0.021,-0.231 -0.101,-0.439 -0.21,-0.629 v 0 C 39.115,87.949 47.499,76.501 54.686,66.867 v 0 C 61.061,57.732 66.618,48.585 70.761,39.686 v 0 C 67.175,37.58 63.582,35.648 60.004,33.892 v 0 c -2.947,5.342 -8.058,9.158 -12.758,11.909 v 0 c -6.439,3.853 -13.089,6.317 -19.284,8.204 v 0 C 17.596,56.647 9.266,60.284 3.02,63.641 v 0 C 2.971,63.358 2.861,63.104 2.683,62.897 v 0 C 12.858,57.07 24.149,53.4 34.379,50.027 v 0 C 44.046,46.478 53.77,40.631 58.342,33.075 v 0 C 51.008,29.579 43.803,26.814 37.123,24.818 v 0 C 25.239,21.298 15.277,21.882 7.868,23.583 v 0 C 7.843,23.473 7.804,23.368 7.757,23.268 v 0 c 0.114,-0.183 0.241,-0.357 0.358,-0.536 v 0 c 12.321,-3.092 25.783,-1.464 36.981,2.877 v 0 c 4.842,1.875 9.571,3.834 14.1,5.926 v 0 C 60.852,28.199 61.5,24.556 60.72,20.649 v 0 C 58.515,9.221 49.206,3.497 42.691,0.544 v 0 C 42.694,0.541 42.694,0.54 42.697,0.536 v 0 c 0.485,-0.07 0.984,-0.105 1.472,-0.161 v 0 c 3.124,1.35 6.09,3.05 8.761,5.21 v 0 c 6.744,5.147 11.088,14.053 9.204,22.435 v 0 c -0.285,1.515 -0.749,2.932 -1.339,4.267 v 0 c 3.758,1.783 7.36,3.664 10.756,5.675 v 0 c 1.859,-4.174 3.4,-8.288 4.545,-12.315 v 0 c 1.842,-5.85 2.632,-11.222 2.739,-16.046 v 0 c 0.013,0 0.027,0.008 0.042,0.008 v 0 c 0.16,0 0.308,-0.046 0.454,-0.092 v 0 c 0.2,0.146 0.386,0.311 0.582,0.458 v 0 c -0.056,8.253 -1.887,16.519 -4.694,23.656 v 0 c -0.688,1.779 -1.426,3.509 -2.179,5.22 v 0 c 3.124,1.921 6.048,3.963 8.734,6.142 v 0 c 0.038,-0.065 0.061,-0.139 0.097,-0.204 v 0 c 2.079,-4.249 4.527,-8.36 8.305,-10.226 v 0 c 2.38,-1 4.685,-1.227 6.735,-1.098 v 0 c -0.072,0.167 -0.127,0.346 -0.127,0.542 v 0 c 0,0.107 0.028,0.201 0.049,0.301 v 0 c -2.174,-0.006 -4.285,0.355 -6.251,1.31 v 0 c -3.636,2.421 -5.83,6.388 -7.546,10.435 v 0 c 1.04,0.889 2.054,1.792 3.011,2.73 v 0 c 5.525,5.356 9.156,11.311 11.414,16.921 v 0 c -0.043,0.131 -0.081,0.263 -0.125,0.394 v 0 c -0.289,0.092 -0.536,0.269 -0.725,0.495 v 0 c -3.192,-7.46 -8.2,-14.065 -14.173,-19.084 v 0 c -0.395,0.991 -0.777,1.979 -1.143,2.939 v 0 c -3.847,11.129 -3.488,22.386 -4.614,31.954 v 0 c -1.273,5.476 -3.408,9.732 -5.819,13.026 v 0 c -0.139,0.062 -0.275,0.135 -0.415,0.198 v 0 c -0.206,-0.104 -0.431,-0.175 -0.676,-0.175" /></g></g></g></g><g
       id="g58"><g
         clip-path="url(#clipPath64)"
         id="g60"><g
           id="g66"><g
             id="g68"><path
               id="path78"
               style="fill:url(#radialGradient76);stroke:none"
               d="M 2.683,62.897 C 12.858,57.07 24.149,53.4 34.379,50.027 v 0 C 44.046,46.478 53.77,40.631 58.342,33.075 v 0 C 51.008,29.579 43.803,26.814 37.123,24.818 v 0 C 25.239,21.298 15.277,21.882 7.868,23.583 v 0 C 7.843,23.473 7.804,23.368 7.757,23.268 v 0 c 0.114,-0.183 0.241,-0.357 0.358,-0.536 v 0 c 12.321,-3.092 25.783,-1.464 36.981,2.877 v 0 c 4.842,1.875 9.571,3.834 14.1,5.926 v 0 C 60.852,28.199 61.5,24.556 60.72,20.649 v 0 C 58.515,9.221 49.206,3.497 42.691,0.544 v 0 C 42.694,0.541 42.694,0.54 42.697,0.536 v 0 c 0.485,-0.07 0.984,-0.105 1.472,-0.161 v 0 c 3.124,1.35 6.09,3.05 8.761,5.21 v 0 c 6.744,5.147 11.088,14.053 9.204,22.435 v 0 c -0.285,1.515 -0.749,2.932 -1.339,4.267 v 0 c 1.242,0.588 2.461,1.194 3.667,1.806 v 0 l -0.864,1.65 c -1.199,-0.628 -2.399,-1.262 -3.594,-1.851 v 0 c -2.947,5.342 -8.058,9.158 -12.758,11.909 v 0 c -6.439,3.853 -13.089,6.317 -19.284,8.204 v 0 C 17.596,56.647 9.266,60.284 3.02,63.641 v 0 C 2.971,63.358 2.861,63.104 2.683,62.897" /></g></g></g></g><g
       id="g80"><g
         clip-path="url(#clipPath86)"
         id="g82"><g
           id="g88"><g
             id="g90"><path
               id="path100"
               style="fill:url(#radialGradient98);stroke:none"
               d="m 70.117,95.498 0.088,-0.926 c 3.621,-5.304 5.614,-11.619 5.321,-17.765 v 0 c 0.433,-11.119 1.642,-21.944 5.587,-30.386 v 0 c -0.65,-0.508 -1.306,-1.006 -1.972,-1.476 v 0 l 0.437,-1.661 c 0.747,0.561 1.481,1.129 2.196,1.709 v 0 c 0.038,-0.065 0.061,-0.139 0.097,-0.204 v 0 c 2.079,-4.249 4.527,-8.36 8.305,-10.226 v 0 c 2.38,-1 4.685,-1.227 6.735,-1.098 v 0 c -0.072,0.167 -0.127,0.346 -0.127,0.542 v 0 c 0,0.107 0.028,0.201 0.049,0.301 v 0 c -2.174,-0.006 -4.285,0.355 -6.251,1.31 v 0 c -3.636,2.421 -5.83,6.388 -7.546,10.435 v 0 c 1.04,0.889 2.054,1.792 3.011,2.73 v 0 c 5.525,5.356 9.156,11.311 11.414,16.921 v 0 c -0.043,0.131 -0.081,0.263 -0.125,0.394 v 0 c -0.289,0.092 -0.536,0.269 -0.725,0.495 v 0 c -3.192,-7.46 -8.2,-14.065 -14.173,-19.084 v 0 c -0.395,0.991 -0.777,1.979 -1.143,2.939 v 0 c -3.847,11.129 -3.488,22.386 -4.614,31.954 v 0 c -1.273,5.476 -3.408,9.732 -5.819,13.026 v 0 c -0.139,0.062 -0.275,0.135 -0.415,0.198 v 0 c -0.105,-0.053 -0.215,-0.096 -0.33,-0.128" /></g></g></g></g></g></svg>