<?xml version="1.0" encoding="UTF-8" standalone="no"?>
<svg
   xmlns:dc="http://purl.org/dc/elements/1.1/"
   xmlns:cc="http://creativecommons.org/ns#"
   xmlns:rdf="http://www.w3.org/1999/02/22-rdf-syntax-ns#"
   xmlns:svg="http://www.w3.org/2000/svg"
   xmlns="http://www.w3.org/2000/svg"
   viewBox="0 0 682.66669 682.66669"
   height="682.66669"
   width="682.66669"
   xml:space="preserve"
   id="svg2"
   version="1.1"><metadata
     id="metadata8"><rdf:RDF><cc:Work
         rdf:about=""><dc:format>image/svg+xml</dc:format><dc:type
           rdf:resource="http://purl.org/dc/dcmitype/StillImage" /></cc:Work></rdf:RDF></metadata><defs
     id="defs6"><clipPath
       id="clipPath24"
       clipPathUnits="userSpaceOnUse"><path
         id="path22"
         d="M 0,512 H 512 V 0 H 0 Z" /></clipPath></defs><g
     transform="matrix(1.3333333,0,0,-1.3333333,0,682.66667)"
     id="g10"><path
       id="path12"
       style="fill:#229e45;fill-opacity:1;fill-rule:nonzero;stroke:none"
       d="M 0,0 H 512 V 512 H 0 Z" /><g
       transform="translate(261.3584,106.6064)"
       id="g14"><path
         id="path16"
         style="fill:#f8e509;fill-opacity:1;fill-rule:nonzero;stroke:none"
         d="M 0,0 229.872,149.193 -1.392,298.789 -232.019,148.834 Z" /></g><g
       id="g18"><g
         clip-path="url(#clipPath24)"
         id="g20"><g
           transform="translate(361.5195,255.9961)"
           id="g26"><path
             id="path28"
             style="fill:#2b49a3;fill-opacity:1;fill-rule:nonzero;stroke:none"
             d="m 0,0 c 0,-53.622 -43.539,-97.093 -97.25,-97.093 -53.709,0 -97.248,43.47 -97.248,97.093 0,53.623 43.54,97.093 97.25,97.093 C -43.537,97.093 0,53.623 0,-0.001 Z" /></g><g
           transform="translate(335.7578,210.4727)"
           id="g30"><path
             id="path32"
             style="fill:#ffffef;fill-opacity:1;fill-rule:nonzero;stroke:none"
             d="m 0,0 -1.634,0.866 -1.698,-0.771 0.38,1.731 -1.31,1.271 1.874,0.199 0.88,1.556 0.786,-1.608 1.85,-0.309 -1.387,-1.191 m -152.022,7.487 -2.006,1.159 -2.083,-1.031 0.467,2.315 -1.61,1.696 2.302,0.271 1.08,2.077 0.964,-2.149 2.27,-0.413 -1.702,-1.594 m 109.072,33.685 -2.091,1.209 -2.17,-1.075 0.485,2.412 -1.676,1.77 2.397,0.28 1.126,2.164 1.005,-2.239 2.366,-0.429 -1.774,-1.66 m 5.836,23.642 -2.655,1.531 -2.757,-1.364 0.618,3.065 -2.131,2.245 3.047,0.357 1.429,2.748 1.275,-2.842 3.006,-0.546 -2.254,-2.11 m -99.713,-57.912 -3.005,1.735 -3.12,-1.544 0.698,3.467 -2.41,2.542 3.447,0.404 1.618,3.109 1.444,-3.218 3.4,-0.617 -2.55,-2.387 m -9.172,36.583 -3.005,1.735 -3.12,-1.544 0.698,3.471 -2.41,2.54 3.447,0.403 1.618,3.11 1.444,-3.216 3.4,-0.618 -2.55,-2.386 m 80.722,-33.62 -3.006,1.734 -3.119,-1.545 0.697,3.469 -2.409,2.542 3.446,0.403 1.618,3.11 1.445,-3.217 3.4,-0.619 -2.55,-2.386 M -0.556,6.709 -3.105,8.18 -5.752,6.869 l 0.593,2.944 -2.046,2.156 2.924,0.343 1.373,2.637 1.226,-2.727 2.884,-0.524 -2.163,-2.026 m -65.415,-12.442 -2.595,1.499 -2.696,-1.333 0.604,2.996 -2.082,2.195 2.978,0.349 1.398,2.686 1.248,-2.78 2.937,-0.532 -2.203,-2.063 m 28.502,-29.378 -3.005,1.735 -3.12,-1.544 0.698,3.467 -2.41,2.54 3.446,0.406 1.62,3.109 1.443,-3.217 3.4,-0.617 -2.55,-2.387 m -64.693,13.01 -3.004,1.734 -3.12,-1.543 0.698,3.467 -2.41,2.542 3.446,0.404 1.62,3.109 1.443,-3.216 3.4,-0.617 -2.55,-2.387" /></g><g
           transform="translate(183.4771,219.7041)"
           id="g34"><path
             id="path36"
             style="fill:#ffffef;fill-opacity:1;fill-rule:nonzero;stroke:none"
             d="m 0,0 -2.006,1.158 -2.083,-1.03 0.467,2.314 -1.61,1.697 2.302,0.27 1.08,2.077 0.964,-2.148 2.27,-0.413 -1.702,-1.595" /></g><g
           transform="translate(232.3018,246.3955)"
           id="g38"><path
             id="path40"
             style="fill:#ffffef;fill-opacity:1;fill-rule:nonzero;stroke:none"
             d="m 0,0 -3.004,1.733 -3.12,-1.545 0.698,3.468 -2.41,2.542 3.446,0.405 1.62,3.109 1.443,-3.218 3.4,-0.617 -2.55,-2.388 m 35.855,-71.01 -1.264,0.73 -1.31,-0.65 0.293,1.457 -1.014,1.07 1.448,0.17 0.68,1.306 0.607,-1.352 1.43,-0.261 -1.072,-1.002 m -2.407,40.278 -1.493,0.86 -1.547,-0.767 0.346,1.72 -1.196,1.261 1.71,0.199 0.805,1.546 0.715,-1.599 1.687,-0.305 -1.265,-1.185 m 23.657,-22.214 -1.49,0.861 -1.547,-0.766 0.346,1.721 -1.197,1.259 1.71,0.203 0.803,1.543 0.717,-1.596 1.687,-0.307 -1.265,-1.183 m 14.032,-1.735 -1.49,0.861 -1.55,-0.766 0.347,1.721 -1.195,1.259 1.71,0.203 0.803,1.543 0.717,-1.596 1.687,-0.307 -1.265,-1.183 m 14.95,-21.454 -1.775,1.062 -1.844,-0.945 0.414,2.125 -1.425,1.556 2.036,0.247 0.958,1.907 0.852,-1.97 2.01,-0.381 -1.508,-1.463 m 0.172,6.584 -1.945,1.064 -2.023,-0.948 0.453,2.126 -1.562,1.557 2.233,0.246 1.05,1.906 0.935,-1.969 2.205,-0.38 -1.654,-1.462 m 30.094,28.009 -1.49,0.859 -1.55,-0.766 0.348,1.72 -1.197,1.263 1.71,0.199 0.804,1.544 0.717,-1.597 1.687,-0.304 -1.265,-1.186 m -21.713,-20.887 -1.548,0.895 -1.607,-0.796 0.359,1.787 -1.242,1.311 1.775,0.21 0.834,1.602 0.743,-1.659 1.75,-0.318 -1.312,-1.231 m -7.396,-1.984 -1.662,0.96 -1.723,-0.856 0.385,1.923 -1.333,1.41 1.906,0.224 0.894,1.724 0.8,-1.783 1.88,-0.343 -1.409,-1.324 m 16.464,0.187 -2.004,1.158 -2.084,-1.03 0.465,2.314 -1.61,1.697 2.302,0.271 1.08,2.075 0.966,-2.147 2.269,-0.413 -1.703,-1.593 m -127.451,30.812 -1.257,0.727 -1.305,-0.647 0.292,1.451 -1.008,1.063 1.442,0.171 0.676,1.3 0.604,-1.346 1.423,-0.258 -1.067,-1 m 52.975,-8.244 -2.005,1.158 -2.083,-1.03 0.466,2.314 -1.61,1.698 2.302,0.269 1.081,2.077 0.965,-2.15 2.269,-0.409 -1.703,-1.596 m 19.776,-2.338 -2.006,1.157 -2.083,-1.03 0.465,2.316 -1.61,1.696 2.303,0.269 1.08,2.077 0.965,-2.149 2.269,-0.412 -1.703,-1.594 m -65.988,-21.667 -2.004,1.158 -2.084,-1.031 0.466,2.315 -1.61,1.697 2.302,0.271 1.08,2.077 0.965,-2.149 2.27,-0.413 -1.702,-1.594 m 4.287,8.291 -2.007,1.158 -2.083,-1.031 0.466,2.315 -1.609,1.696 2.301,0.271 1.08,2.077 0.965,-2.149 2.27,-0.413 -1.703,-1.594 m -31.613,-2.337 -2.006,1.158 -2.083,-1.03 0.467,2.314 -1.61,1.696 2.302,0.271 1.08,2.077 0.964,-2.149 2.27,-0.413 -1.702,-1.594" /></g><g
           transform="translate(355.1133,221.0664)"
           id="g42"><path
             id="path44"
             style="fill:#ffffff;fill-opacity:1;fill-rule:nonzero;stroke:none"
             d="m 0,0 c 1.481,3.876 3.394,9.72 4.41,15.086 -51.653,45.374 -109.233,68.618 -181.99,63.835 -2.607,-5 -4.695,-10.235 -6.456,-15.9 C -97.829,71.245 -34.641,33.078 0.002,0 Z" /></g><g
           transform="translate(216.9683,286.4922)"
           id="g46"><path
             id="path48"
             style="fill:#309e3a;fill-opacity:1;fill-rule:nonzero;stroke:none"
             d="M 0,0 0.995,10.644 8.855,9.901 8.689,8.101 2.969,8.641 2.746,6.281 8.066,5.779 7.9,3.986 2.578,4.488 2.308,1.591 8.228,1.034 8.062,-0.761 0,-0.001 Z m 10.757,-1.25 1.55,10.574 3.182,-0.47 0.856,-7.494 2.944,6.933 3.192,-0.47 -1.55,-10.576 -1.976,0.29 1.222,8.325 -3.312,-8.015 -2.047,0.303 -0.865,8.632 -1.22,-8.323 -1.977,0.29 z m 68.807,-17.062 0.823,1.6 4.117,-2.13 -1.939,-3.785 c -0.604,-0.182 -1.36,-0.225 -2.275,-0.13 -0.908,0.1 -1.75,0.35 -2.53,0.753 -0.99,0.512 -1.746,1.163 -2.268,1.96 -0.52,0.8 -0.77,1.68 -0.743,2.647 0.03,0.97 0.277,1.91 0.745,2.822 0.506,0.99 1.167,1.76 1.976,2.317 0.805,0.555 1.714,0.83 2.72,0.83 0.769,0.004 1.604,-0.232 2.51,-0.696 1.175,-0.61 1.965,-1.332 2.366,-2.17 0.41,-0.836 0.486,-1.738 0.226,-2.71 l -2.08,0.626 c 0.113,0.504 0.045,1.032 -0.189,1.492 -0.226,0.462 -0.614,0.835 -1.163,1.12 -0.837,0.433 -1.637,0.51 -2.406,0.233 -0.762,-0.278 -1.411,-0.938 -1.948,-1.984 -0.579,-1.128 -0.765,-2.104 -0.556,-2.93 0.212,-0.817 0.719,-1.437 1.532,-1.857 0.399,-0.207 0.84,-0.336 1.32,-0.387 0.486,-0.05 0.93,-0.037 1.335,0.038 l 0.619,1.207 -2.189,1.132 z m 15.777,-12.958 5.548,9.124 6.737,-4.13 -0.939,-1.544 -4.9,3.006 -1.232,-2.022 4.562,-2.797 -0.935,-1.537 -4.562,2.795 -1.51,-2.483 5.077,-3.11 -0.937,-1.54 -6.91,4.237 z m 10.83,-2.902 1.887,-0.931 c -0.264,-0.665 -0.318,-1.239 -0.167,-1.722 0.156,-0.487 0.51,-0.904 1.066,-1.247 0.589,-0.368 1.108,-0.52 1.557,-0.455 0.457,0.066 0.79,0.264 0.994,0.6 0.129,0.196 0.181,0.432 0.147,0.664 -0.03,0.228 -0.167,0.496 -0.412,0.805 -0.167,0.207 -0.573,0.64 -1.218,1.306 -0.828,0.853 -1.33,1.58 -1.508,2.179 -0.246,0.849 -0.148,1.631 0.293,2.349 0.284,0.459 0.697,0.825 1.188,1.053 0.515,0.24 1.083,0.316 1.702,0.222 0.623,-0.097 1.284,-0.36 1.978,-0.794 1.138,-0.706 1.837,-1.487 2.1,-2.343 0.266,-0.86 0.16,-1.713 -0.326,-2.566 l -1.88,1.056 c 0.21,0.514 0.25,0.954 0.115,1.316 -0.128,0.367 -0.45,0.709 -0.963,1.029 -0.532,0.332 -1.016,0.48 -1.45,0.448 -0.265,-0.011 -0.505,-0.155 -0.639,-0.384 -0.132,-0.215 -0.155,-0.453 -0.069,-0.721 0.112,-0.338 0.546,-0.887 1.306,-1.652 0.756,-0.761 1.28,-1.389 1.563,-1.878 0.29,-0.49 0.434,-1.005 0.43,-1.546 0.005,-0.54 -0.173,-1.096 -0.526,-1.673 -0.321,-0.519 -0.769,-0.917 -1.336,-1.192 -0.567,-0.275 -1.185,-0.36 -1.849,-0.256 -0.66,0.108 -1.384,0.41 -2.17,0.897 -1.145,0.712 -1.86,1.523 -2.149,2.434 -0.285,0.914 -0.173,1.916 0.335,3.006 z m 8.753,-5.745 1.846,-1.008 c -0.29,-0.654 -0.367,-1.226 -0.236,-1.714 0.136,-0.493 0.476,-0.923 1.016,-1.288 0.574,-0.392 1.087,-0.564 1.537,-0.518 0.457,0.046 0.797,0.233 1.019,0.56 0.14,0.21 0.195,0.43 0.17,0.657 -0.021,0.231 -0.147,0.503 -0.377,0.821 -0.16,0.213 -0.548,0.665 -1.165,1.354 -0.794,0.884 -1.268,1.63 -1.42,2.24 -0.212,0.854 -0.083,1.629 0.39,2.332 0.303,0.45 0.713,0.786 1.228,1.004 0.524,0.221 1.095,0.271 1.71,0.151 0.617,-0.12 1.268,-0.41 1.943,-0.87 1.108,-0.753 1.777,-1.562 2.004,-2.427 0.234,-0.87 0.091,-1.72 -0.429,-2.55 l -1.833,1.13 c 0.23,0.507 0.286,0.943 0.166,1.313 -0.111,0.37 -0.418,0.725 -0.92,1.066 -0.517,0.35 -0.994,0.518 -1.43,0.504 -0.265,0 -0.512,-0.135 -0.654,-0.358 -0.141,-0.211 -0.177,-0.475 -0.098,-0.717 0.098,-0.343 0.51,-0.911 1.239,-1.704 0.727,-0.793 1.223,-1.44 1.487,-1.943 0.269,-0.5 0.392,-1.02 0.367,-1.562 -0.018,-0.538 -0.216,-1.087 -0.592,-1.647 -0.34,-0.506 -0.819,-0.901 -1.381,-1.138 -0.579,-0.252 -1.199,-0.314 -1.859,-0.182 -0.657,0.134 -1.368,0.462 -2.133,0.983 -1.115,0.756 -1.801,1.596 -2.051,2.517 -0.244,0.924 -0.093,1.923 0.458,2.992 z" /></g><g
           transform="translate(181.3701,293.1499)"
           id="g50"><path
             id="path52"
             style="fill:#309e3a;fill-opacity:1;fill-rule:nonzero;stroke:none"
             d="m 0,0 c 0.03,1.087 0.216,1.997 0.56,2.726 0.257,0.538 0.6,1.017 1.027,1.438 0.432,0.42 0.9,0.73 1.407,0.924 0.67,0.263 1.44,0.384 2.304,0.36 1.57,-0.043 2.81,-0.565 3.72,-1.567 0.92,-1.002 1.354,-2.373 1.307,-4.112 C 10.278,-1.955 9.775,-3.294 8.813,-4.245 7.853,-5.191 6.591,-5.643 5.029,-5.6 3.444,-5.558 2.199,-5.04 1.292,-4.048 0.384,-3.05 -0.048,-1.701 0,-0.001 Z" /></g><g
           transform="translate(183.5918,293.1699)"
           id="g54"><path
             id="path56"
             style="fill:#f7ffff;fill-opacity:1;fill-rule:nonzero;stroke:none"
             d="m 0,0 c -0.033,-1.21 0.22,-2.137 0.76,-2.778 0.54,-0.638 1.238,-0.968 2.095,-0.99 0.856,-0.025 1.567,0.265 2.13,0.866 0.568,0.608 0.87,1.53 0.903,2.77 C 5.921,1.092 5.678,2.013 5.158,2.63 4.64,3.247 3.94,3.567 3.054,3.592 2.169,3.616 1.447,3.329 0.887,2.732 0.327,2.139 0.031,1.228 -0.001,-0.001 Z" /></g><g
           transform="translate(193.9902,287.6348)"
           id="g58"><path
             id="path60"
             style="fill:#309e3a;fill-opacity:1;fill-rule:nonzero;stroke:none"
             d="M 0,0 0.125,10.688 4.649,10.634 C 5.786,10.619 6.609,10.514 7.121,10.312 7.637,10.117 8.047,9.772 8.351,9.277 8.655,8.782 8.803,8.22 8.796,7.587 8.786,6.787 8.544,6.125 8.068,5.607 7.592,5.091 6.886,4.772 5.948,4.647 6.411,4.369 6.792,4.065 7.088,3.737 7.388,3.407 7.79,2.824 8.294,1.987 L 9.57,-0.113 7,-0.083 5.472,2.261 C 4.932,3.098 4.558,3.625 4.358,3.841 4.185,4.043 3.964,4.199 3.716,4.294 3.49,4.378 3.13,4.424 2.636,4.429 L 2.201,4.435 2.148,-0.025 -0.002,0 Z" /></g><g
           transform="translate(196.2202,293.7769)"
           id="g62"><path
             id="path64"
             style="fill:#ffffff;fill-opacity:1;fill-rule:nonzero;stroke:none"
             d="m 0,0 1.59,-0.02 c 1.032,-0.012 1.676,0.025 1.934,0.11 0.257,0.084 0.46,0.232 0.607,0.444 0.147,0.212 0.224,0.48 0.23,0.8 0.003,0.36 -0.09,0.65 -0.282,0.87 -0.186,0.227 -0.453,0.372 -0.8,0.434 -0.175,0.026 -0.7,0.044 -1.57,0.055 L 0.032,2.711 0.002,0.001 Z" /></g><g
           transform="translate(206.1528,297.793)"
           id="g66"><path
             id="path68"
             style="fill:#309e3a;fill-opacity:1;fill-rule:nonzero;stroke:none"
             d="m 0,0 3.924,-0.2 c 0.885,-0.045 1.555,-0.147 2.012,-0.307 0.613,-0.216 1.132,-0.57 1.552,-1.065 0.422,-0.492 0.73,-1.086 0.93,-1.783 0.196,-0.692 0.27,-1.537 0.22,-2.536 C 8.594,-6.769 8.446,-7.521 8.198,-8.146 7.891,-8.91 7.481,-9.518 6.962,-9.974 c -0.39,-0.345 -0.907,-0.603 -1.55,-0.775 -0.482,-0.127 -1.12,-0.17 -1.913,-0.13 l -4.038,0.206 0.538,10.675 z" /></g><g
           transform="translate(208.2129,295.8901)"
           id="g70"><path
             id="path72"
             style="fill:#ffffff;fill-opacity:1;fill-rule:nonzero;stroke:none"
             d="m 0,0 -0.356,-7.072 1.603,-0.08 c 0.6,-0.033 1.034,-0.02 1.303,0.034 0.352,0.07 0.648,0.204 0.886,0.4 0.242,0.198 0.447,0.53 0.615,1 0.17,0.47 0.276,1.12 0.318,1.945 0.042,0.825 0,1.464 -0.122,1.913 -0.122,0.45 -0.308,0.803 -0.557,1.065 -0.265,0.27 -0.6,0.461 -0.967,0.552 -0.297,0.084 -0.883,0.148 -1.758,0.192 L 0,-0.001 Z" /></g><g
           transform="translate(258.4775,278.707)"
           id="g74"><path
             id="path76"
             style="fill:#309e3a;fill-opacity:1;fill-rule:nonzero;stroke:none"
             d="M 0,0 2.486,10.393 5.842,9.583 C 7.111,9.278 7.928,9.026 8.288,8.828 8.845,8.53 9.259,8.07 9.534,7.448 9.81,6.833 9.848,6.111 9.65,5.284 9.497,4.647 9.255,4.138 8.919,3.759 8.585,3.379 8.208,3.109 7.79,2.943 7.41,2.787 7.003,2.709 6.593,2.713 6.07,2.735 5.336,2.86 4.39,3.088 L 3.026,3.418 2.089,-0.504 -0.004,0 Z" /></g><g
           transform="translate(262.6396,286.8398)"
           id="g78"><path
             id="path80"
             style="fill:#ffffff;fill-opacity:1;fill-rule:nonzero;stroke:none"
             d="m 0,0 -0.707,-2.95 1.144,-0.275 c 0.826,-0.198 1.388,-0.277 1.69,-0.234 0.307,0.043 0.562,0.16 0.773,0.354 0.215,0.193 0.361,0.443 0.433,0.75 0.091,0.38 0.056,0.717 -0.106,1.016 -0.164,0.3 -0.408,0.52 -0.731,0.663 -0.239,0.108 -0.733,0.252 -1.486,0.434 l -1.011,0.244 z" /></g><g
           transform="translate(268.373,275.7432)"
           id="g82"><path
             id="path84"
             style="fill:#309e3a;fill-opacity:1;fill-rule:nonzero;stroke:none"
             d="M 0,0 3.538,10.08 7.808,8.57 C 8.88,8.19 9.628,7.824 10.046,7.47 10.472,7.117 10.749,6.66 10.879,6.092 11.009,5.524 10.969,4.944 10.759,4.349 10.495,3.592 10.054,3.046 9.437,2.707 8.822,2.373 8.051,2.297 7.125,2.481 7.473,2.069 7.735,1.661 7.91,1.253 8.092,0.843 8.285,0.161 8.495,-0.793 l 0.536,-2.4 -2.424,0.857 -0.695,2.712 C 5.667,1.343 5.484,1.961 5.362,2.232 5.263,2.478 5.104,2.696 4.9,2.867 4.713,3.022 4.387,3.18 3.92,3.347 L 3.51,3.491 2.033,-0.719 0.006,0.001 Z" /></g><g
           transform="translate(272.4375,280.8369)"
           id="g86"><path
             id="path88"
             style="fill:#ffffff;fill-opacity:1;fill-rule:nonzero;stroke:none"
             d="m 0,0 1.5,-0.53 c 0.974,-0.344 1.594,-0.518 1.864,-0.52 0.271,-0.003 0.511,0.07 0.721,0.225 0.206,0.152 0.362,0.38 0.47,0.683 0.118,0.34 0.123,0.645 0.012,0.915 C 4.464,1.047 4.258,1.269 3.947,1.441 3.79,1.521 3.302,1.708 2.479,1.998 L 0.897,2.558 0.001,0 Z" /></g><g
           transform="translate(280.8799,276.1299)"
           id="g90"><path
             id="path92"
             style="fill:#309e3a;fill-opacity:1;fill-rule:nonzero;stroke:none"
             d="M 0,0 C 0.323,1.04 0.75,1.863 1.276,2.47 1.67,2.92 2.126,3.287 2.654,3.575 3.148,3.851 3.693,4.023 4.256,4.082 4.974,4.154 5.746,4.06 6.573,3.802 8.071,3.332 9.123,2.492 9.73,1.278 10.342,0.064 10.39,-1.375 9.874,-3.036 9.364,-4.684 8.517,-5.834 7.334,-6.488 6.154,-7.138 4.818,-7.228 3.324,-6.76 1.814,-6.288 0.754,-5.45 0.15,-4.248 -0.455,-3.04 -0.504,-1.625 0,-0.001 Z" /></g><g
           transform="translate(283.0273,275.5298)"
           id="g94"><path
             id="path96"
             style="fill:#ffffff;fill-opacity:1;fill-rule:nonzero;stroke:none"
             d="m 0,0 c -0.36,-1.154 -0.366,-2.114 -0.021,-2.88 0.349,-0.76 0.931,-1.267 1.75,-1.524 0.818,-0.255 1.579,-0.17 2.284,0.256 0.712,0.428 1.252,1.235 1.62,2.418 0.362,1.17 0.376,2.122 0.04,2.86 C 5.345,1.863 4.756,2.363 3.911,2.627 3.064,2.892 2.293,2.813 1.594,2.39 0.896,1.972 0.365,1.176 0.001,0 Z" /></g><g
           transform="translate(301.6924,261.2461)"
           id="g98"><path
             id="path100"
             style="fill:#309e3a;fill-opacity:1;fill-rule:nonzero;stroke:none"
             d="M 0,0 4.89,9.494 8.909,7.407 c 1.011,-0.526 1.7,-0.992 2.068,-1.402 0.37,-0.406 0.584,-0.9 0.633,-1.48 C 11.66,3.945 11.541,3.378 11.253,2.815 10.886,2.105 10.373,1.623 9.715,1.375 9.06,1.128 8.288,1.161 7.395,1.471 7.683,1.015 7.885,0.571 8.005,0.145 8.125,-0.285 8.225,-0.987 8.3,-1.962 L 8.5,-4.412 6.217,-3.228 5.9,-0.446 C 5.791,0.547 5.694,1.184 5.61,1.468 5.547,1.726 5.419,1.965 5.24,2.162 5.077,2.34 4.774,2.542 4.337,2.772 L 3.949,2.972 1.909,-0.991 0,-0.001 Z" /></g><g
           transform="translate(306.418,265.7402)"
           id="g102"><path
             id="path104"
             style="fill:#ffffff;fill-opacity:1;fill-rule:nonzero;stroke:none"
             d="m 0,0 1.412,-0.733 c 0.916,-0.477 1.508,-0.734 1.776,-0.775 0.267,-0.04 0.516,0 0.743,0.123 0.226,0.123 0.41,0.327 0.56,0.613 0.164,0.32 0.21,0.62 0.138,0.903 C 4.564,0.418 4.389,0.668 4.107,0.881 3.963,0.981 3.504,1.234 2.729,1.636 L 1.241,2.41 -0.001,0 Z" /></g><g
           transform="translate(341.1904,241.7402)"
           id="g106"><path
             id="path108"
             style="fill:#309e3a;fill-opacity:1;fill-rule:nonzero;stroke:none"
             d="M 0,0 C 0.606,0.899 1.25,1.566 1.933,1.996 2.435,2.31 2.988,2.532 3.568,2.653 4.121,2.774 4.691,2.781 5.247,2.674 5.954,2.534 6.667,2.221 7.385,1.733 8.685,0.851 9.449,-0.26 9.683,-1.597 9.92,-2.937 9.553,-4.326 8.579,-5.769 7.617,-7.196 6.478,-8.055 5.159,-8.338 c -1.317,-0.278 -2.623,0.022 -3.92,0.9 -1.309,0.892 -2.083,2 -2.316,3.327 -0.233,1.33 0.127,2.7 1.077,4.11 z" /></g><g
           transform="translate(343.0732,240.5566)"
           id="g110"><path
             id="path112"
             style="fill:#ffffff;fill-opacity:1;fill-rule:nonzero;stroke:none"
             d="m 0,0 c -0.675,-1.003 -0.958,-1.92 -0.848,-2.752 0.116,-0.83 0.527,-1.482 1.236,-1.966 C 1.1,-5.2 1.853,-5.34 2.65,-5.138 c 0.806,0.206 1.554,0.821 2.246,1.848 0.683,1.015 0.97,1.924 0.86,2.725 C 5.651,0.234 5.232,0.881 4.499,1.38 3.765,1.879 3.004,2.027 2.214,1.824 1.424,1.626 0.688,1.018 0.002,-0.001 Z" /></g><g
           transform="translate(246.4268,283.0498)"
           id="g114"><path
             id="path116"
             style="fill:#309e3a;fill-opacity:1;fill-rule:nonzero;stroke:none"
             d="M 0,0 1.714,7.504 7.257,6.226 6.969,4.959 2.938,5.886 2.553,4.223 6.307,3.357 6.017,2.095 2.267,2.958 1.797,0.916 5.973,-0.046 5.685,-1.311 0,-0.001 Z" /></g></g></g></g></svg>