<?xml version="1.0" encoding="UTF-8" standalone="no"?>
<svg
   xmlns:dc="http://purl.org/dc/elements/1.1/"
   xmlns:cc="http://creativecommons.org/ns#"
   xmlns:rdf="http://www.w3.org/1999/02/22-rdf-syntax-ns#"
   xmlns:svg="http://www.w3.org/2000/svg"
   xmlns="http://www.w3.org/2000/svg"
   viewBox="0 0 135.99333 136.68533"
   height="136.68533"
   width="135.99333"
   xml:space="preserve"
   id="svg2"
   version="1.1"><metadata
     id="metadata8"><rdf:RDF><cc:Work
         rdf:about=""><dc:format>image/svg+xml</dc:format><dc:type
           rdf:resource="http://purl.org/dc/dcmitype/StillImage" /></cc:Work></rdf:RDF></metadata><defs
     id="defs6"><radialGradient
       id="radialGradient34"
       spreadMethod="pad"
       gradientTransform="matrix(49.999996,0,0,-49.999996,51.995419,50.719639)"
       gradientUnits="userSpaceOnUse"
       r="1"
       cy="0"
       cx="0"
       fy="0"
       fx="0"><stop
         id="stop24"
         offset="0"
         style="stop-opacity:1;stop-color:#f1f1f2" /><stop
         id="stop26"
         offset="0.60670635"
         style="stop-opacity:1;stop-color:#f1f1f2" /><stop
         id="stop28"
         offset="0.759249"
         style="stop-opacity:1;stop-color:#d0d2d3" /><stop
         id="stop30"
         offset="0.95864853"
         style="stop-opacity:1;stop-color:#bbbdbf" /><stop
         id="stop32"
         offset="1"
         style="stop-opacity:1;stop-color:#bbbdbf" /></radialGradient><linearGradient
       id="linearGradient62"
       spreadMethod="pad"
       gradientTransform="matrix(10.391546,-101.11785,-101.11785,-10.391546,44.773643,118.06995)"
       gradientUnits="userSpaceOnUse"
       y2="0"
       x2="1"
       y1="0"
       x1="0"><stop
         id="stop54"
         offset="0"
         style="stop-opacity:1;stop-color:#333333" /><stop
         id="stop56"
         offset="0.45307886"
         style="stop-opacity:1;stop-color:#333333" /><stop
         id="stop58"
         offset="0.983871"
         style="stop-opacity:1;stop-color:#1b1b1b" /><stop
         id="stop60"
         offset="1"
         style="stop-opacity:1;stop-color:#1b1b1b" /></linearGradient><clipPath
       id="clipPath72"
       clipPathUnits="userSpaceOnUse"><path
         id="path70"
         d="M 0,102.514 H 101.995 V 0 H 0 Z" /></clipPath><clipPath
       id="clipPath80"
       clipPathUnits="userSpaceOnUse"><path
         id="path78"
         d="M 12.4038,90.3861 H 101.423 V 1.36349 H 12.4038 Z" /></clipPath></defs><g
     transform="matrix(1.3333333,0,0,-1.3333333,0,136.68533)"
     id="g10"><g
       id="g12"><g
         id="g14"><g
           id="g20"><g
             id="g22"><path
               id="path36"
               style="fill:url(#radialGradient34);stroke:none"
               d="M 1.995,50.719 C 1.995,23.106 24.381,0.72 51.996,0.72 v 0 c 27.613,0 49.999,22.386 49.999,49.999 v 0 c 0,27.615 -22.386,50.001 -49.999,50.001 v 0 C 24.381,100.72 1.995,78.334 1.995,50.719" /></g></g><g
           transform="translate(16.1473,23.3212)"
           id="g38"><path
             id="path40"
             style="fill:#333333;fill-opacity:1;fill-rule:nonzero;stroke:none"
             d="m 0,0 c -5.425,4.355 -11.129,16.217 -11.369,16.719 l 0.568,0.272 c 0.058,-0.122 5.882,-12.235 11.195,-16.5 z" /></g></g></g><g
       id="g42"><g
         id="g44"><g
           id="g50"><g
             id="g52"><path
               id="path64"
               style="fill:url(#linearGradient62);stroke:none"
               d="m 23.308,91.676 c 4.331,1.174 10.694,2.765 13.774,2.887 v 0 L 39.419,82.002 C 38.302,80.903 29.423,72.066 25.564,65.3 v 0 C 21.62,65.197 13.026,62.727 9.533,61.676 v 0 C 8.55,64.459 8.499,71.618 8.204,74.871 v 0 C 4.247,67.711 1.995,59.479 1.995,50.719 v 0 c 0,-3.205 0.302,-6.341 0.879,-9.379 v 0 c 1.143,-0.767 2.188,-1.163 2.188,-1.163 v 0 c 0.273,5.909 3.874,18.663 4.501,20.848 v 0 c 3.326,1.003 11.947,3.496 15.854,3.648 v 0 C 26.059,63.19 30.236,53.906 37.329,46.337 v 0 C 36.603,43.99 32.585,30.893 31.73,25.719 v 0 C 27.035,24.533 16.344,23.566 16.344,23.566 v 0 c -0.123,-1.834 2.58,-7.701 4.823,-12.214 v 0 C 27.754,6.187 35.67,2.639 44.316,1.306 v 0 c 2.38,2.584 5.108,8.007 5.873,9.575 v 0 c 4.126,1.152 16.294,4.653 20.89,7.088 v 0 c 0.002,-0.002 0.002,-0.006 0.003,-0.009 v 0 c 0.626,-0.829 14.416,-3.944 14.416,-3.944 v 0 c 2.703,1.587 6.78,7.16 9.679,11.482 v 0 c 1.323,2.26 2.474,4.634 3.434,7.102 v 0 c -0.521,4.319 -3.572,12.031 -4.359,13.97 v 0 c 1.995,5.925 1.067,18.406 0.824,21.225 v 0 c 0.573,0.366 1.808,1.189 3.049,2.248 v 0 C 93.322,81.494 84.383,90.778 73.174,96.026 v 0 c 0.794,-1.387 3.853,-7.09 4.453,-13.671 v 0 L 60.829,75.577 c -2.853,1.843 -17.767,5.652 -20.766,6.407 v 0 l -2.367,12.719 c 1.359,0.706 8.165,4.185 13.71,6.013 v 0 C 40.958,100.595 31.278,97.27 23.308,91.676 M 60.245,53.744 c 0.165,2.954 1.025,18.491 1.064,21.312 v 0 c 0.001,0.01 -0.01,0.022 -0.011,0.032 v 0 l 16.761,6.763 C 79.984,80.59 88.37,74.913 94.431,67.934 v 0 C 94.629,65.642 95.643,52.57 93.634,46.712 v 0 c -4.402,-3.115 -14.74,-7.03 -16.916,-7.836 v 0 z M 32.367,25.717 c 0.865,5.077 4.761,17.829 5.536,20.343 v 0 c 2.251,0.643 19.284,5.528 22.091,7.062 v 0 L 76.308,38.398 C 76.242,34.151 71.643,21.848 71.094,18.683 v 0 C 67.001,16.356 54.339,12.7 50.072,11.503 v 0 c -5.756,3.3 -16.355,12.974 -17.705,14.214" /></g></g></g></g><g
       id="g66"><g
         clip-path="url(#clipPath72)"
         id="g68"><g
           id="g74"><g
             id="g76" /><g
             id="g88"><g
               style="opacity:0.19999701"
               id="g86"
               clip-path="url(#clipPath80)"><g
                 id="g84"
                 transform="translate(101.4227,50.9115)"><path
                   id="path82"
                   style="fill:#878787;fill-opacity:1;fill-rule:nonzero;stroke:none"
                   d="m 0,0 c 0,-2.231 -0.145,-4.423 -0.436,-6.572 -0.036,-0.346 -0.088,-0.693 -0.145,-1.037 -1.08,-7.081 -3.668,-13.658 -7.422,-19.407 -0.209,-0.325 -0.426,-0.653 -0.643,-0.971 -4.36,-6.351 -10.129,-11.612 -16.896,-15.376 h -0.022 c -0.484,-0.27 -0.97,-0.527 -1.456,-0.786 -6.755,-3.445 -14.417,-5.399 -22.522,-5.399 -0.684,0 -1.355,0.012 -2.031,0.049 -1.695,0.06 -3.359,0.209 -5.004,0.454 h -0.03 c -9.484,1.35 -18.093,5.395 -25.039,11.319 -0.524,0.436 -1.031,0.889 -1.535,1.365 -2.132,1.955 -4.085,4.114 -5.838,6.432 6.539,-4.976 14.35,-8.354 22.861,-9.562 h 0.029 c 1.645,-0.248 3.309,-0.398 5.003,-0.457 0.673,-0.039 1.349,-0.047 2.032,-0.047 8.105,0 15.766,1.951 22.524,5.395 0.486,0.262 0.971,0.519 1.458,0.785 h 0.019 c 6.769,3.768 12.532,9.031 16.89,15.382 0.22,0.319 0.439,0.645 0.645,0.969 3.757,5.751 6.344,12.328 7.424,19.405 0.06,0.346 0.109,0.692 0.149,1.039 0.286,2.147 0.433,4.339 0.433,6.571 0,11.249 -3.741,21.613 -10.066,29.924 C -7.697,30.438 0,16.121 0,0" /></g></g></g></g></g></g></g></svg>