<?xml version="1.0" encoding="UTF-8" standalone="no"?>
<svg
   xmlns:dc="http://purl.org/dc/elements/1.1/"
   xmlns:cc="http://creativecommons.org/ns#"
   xmlns:rdf="http://www.w3.org/1999/02/22-rdf-syntax-ns#"
   xmlns:svg="http://www.w3.org/2000/svg"
   xmlns="http://www.w3.org/2000/svg"
   viewBox="0 0 23.3468 23.346666"
   height="23.346666"
   width="23.3468"
   xml:space="preserve"
   id="svg2"
   version="1.1"><metadata
     id="metadata8"><rdf:RDF><cc:Work
         rdf:about=""><dc:format>image/svg+xml</dc:format><dc:type
           rdf:resource="http://purl.org/dc/dcmitype/StillImage" /></cc:Work></rdf:RDF></metadata><defs
     id="defs6"><clipPath
       id="clipPath18"
       clipPathUnits="userSpaceOnUse"><path
         id="path16"
         d="M 0,17.51 H 17.51 V 0 H 0 Z" /></clipPath></defs><g
     transform="matrix(1.3333333,0,0,-1.3333333,0,23.346667)"
     id="g10"><g
       id="g12"><g
         clip-path="url(#clipPath18)"
         id="g14"><g
           transform="translate(6.5201,6.49)"
           id="g20"><path
             id="path22"
             style="fill:#102740;fill-opacity:1;fill-rule:nonzero;stroke:none"
             d="M 0,0 C -2.485,0 -4.5,2.015 -4.5,4.5 -4.5,6.985 -2.485,9 0,9 2.485,9 4.5,6.985 4.5,4.5 4.503,2.018 2.494,0.003 0.012,0 Z M 6,0 H 5.21 L 4.93,0.27 c 2.341,2.728 2.028,6.838 -0.7,9.18 -2.728,2.342 -6.838,2.028 -9.18,-0.7 -2.342,-2.729 -2.028,-6.838 0.7,-9.18 2.439,-2.093 6.041,-2.093 8.48,0 L 4.5,-0.71 V -1.5 l 5,-4.99 1.49,1.49 z" /></g></g></g>
             </g>
             </svg>