<?xml version="1.0" encoding="UTF-8" standalone="no"?>
<svg
   xmlns:dc="http://purl.org/dc/elements/1.1/"
   xmlns:cc="http://creativecommons.org/ns#"
   xmlns:rdf="http://www.w3.org/1999/02/22-rdf-syntax-ns#"
   xmlns:svg="http://www.w3.org/2000/svg"
   xmlns="http://www.w3.org/2000/svg"
   viewBox="0 0 26.666668 13.333333"
   height="13.333333"
   width="26.666668"
   xml:space="preserve"
   id="svg2"
   version="1.1"><metadata
     id="metadata8"><rdf:RDF><cc:Work
         rdf:about=""><dc:format>image/svg+xml</dc:format><dc:type
           rdf:resource="http://purl.org/dc/dcmitype/StillImage" /></cc:Work></rdf:RDF></metadata><defs
     id="defs6"><clipPath
       id="clipPath18"
       clipPathUnits="userSpaceOnUse"><path
         id="path16"
         d="M 0,10 H 20 V 0 H 0 Z" /></clipPath></defs><g
     transform="matrix(1.3333333,0,0,-1.3333333,0,13.333333)"
     id="g10"><g
       id="g12"><g
         clip-path="url(#clipPath18)"
         id="g14"><g
           transform="translate(15,10)"
           id="g20"><path
             id="path22"
             style="fill:#264570;fill-opacity:1;fill-rule:nonzero;stroke:none"
             d="m 0,0 h -4 v -1.9 h 4 c 1.712,0 3.1,-1.388 3.101,-3.1 0,-1.711 -1.388,-3.1 -3.1,-3.1 H 0 -4 V -10 h 4 c 2.761,0 5,2.239 5,5 0,2.761 -2.239,5 -5,5 m -9,-6 h 8 v 2 h -8 z m -4.1,1 c 0,1.712 1.388,3.1 3.1,3.1 h 4 V 0 h -4 c -2.761,0 -5,-2.239 -5,-5 0,-2.761 2.239,-5 5,-5 h 4 v 1.9 h -4 c -1.712,0 -3.1,1.388 -3.1,3.1" /></g></g></g></g></svg>